<svg xmlns="http://www.w3.org/2000/svg" width="80" height="80" viewBox="0 0 80 80">
    <polygon fill="#ffeea3" points="67,44.5 13,44.5 3,74.5 77,74.5" />
    <path fill="#ba9b48" d="M77.694,75H2.306L12.64,44H67.36L77.694,75z M3.694,74h72.612L66.64,45H13.36L3.694,74z" />
    <polygon fill="#ffeea3" points="60.34,45.3 19.703,45.3 19,44 61,44" opacity=".5" />
    <path fill="#f78f8f"
        d="M39.998,69.652C36.213,65.373,17.5,43.33,17.5,26C17.5,13.593,27.593,3.5,40,3.5 S62.5,13.593,62.5,26C62.5,43.244,43.784,65.359,39.998,69.652z" />
    <path fill="#c74343"
        d="M39.999,70.407l-0.375-0.424C35.846,65.712,17,43.521,17,26C17,13.318,27.318,3,40,3 s23,10.318,23,23c0,17.44-18.849,39.698-22.627,43.982L39.999,70.407z M40,4c-12.131,0-22,9.869-22,22 c0,16.647,17.536,37.787,21.998,42.894C44.458,63.772,62,42.569,62,26C62,13.869,52.131,4,40,4z" />
    <g>
        <path fill="#f2faff"
            d="M40,34.5c-5.237,0-9.5-4.261-9.5-9.5s4.263-9.5,9.5-9.5s9.5,4.261,9.5,9.5S45.237,34.5,40,34.5z" />
        <path fill="#c74343"
            d="M40,35c-5.514,0-10-4.486-10-10s4.486-10,10-10s10,4.486,10,10S45.514,35,40,35z M40,16 c-4.962,0-9,4.038-9,9s4.038,9,9,9s9-4.038,9-9S44.962,16,40,16z" />
    </g>
</svg>