<svg xmlns="http://www.w3.org/2000/svg" width="80" height="80" viewBox="0 0 48 48">
    <path fill="#1e88e5" d="M42,41H28V16h10c2.199,0,4,1.801,4,4V41z" />
    <path fill="#1976d2" d="M28,41h14v2H28V41z" />
    <path fill="#0d47a1" d="M34 21h4v4h-4V21zM34 28h4v4h-4V28zM34 35h4v4h-4V35z" />
    <g>
        <path fill="#64b5f6" d="M9 5H29V9H9z" />
        <path fill="#90caf9" d="M32,41H6V10c0-1.1,0.9-2,2-2h22c1.1,0,2,0.9,2,2V41z" />
        <path fill="#64b5f6" d="M6,41h26v2H6V41z" />
        <path fill="#1565c0"
            d="M17 33h4v6h-4V33zM10 33h4v6h-4V33zM24 33h4v6h-4V33zM17 19h4v4h-4V19zM10 19h4v4h-4V19zM24 19h4v4h-4V19zM17 26h4v4h-4V26zM10 26h4v4h-4V26zM24 26h4v4h-4V26zM17 12h4v4h-4V12zM10 12h4v4h-4V12zM24 12h4v4h-4V12z" />
    </g>
</svg>