<svg xmlns="http://www.w3.org/2000/svg" viewBox="0 0 30 30"><path fill="#f78f8f" d="M15,28.5C7.6,28.5,1.5,22.4,1.5,15S7.6,1.5,15,1.5S28.5,7.6,28.5,15S22.4,28.5,15,28.5z M15,3.5 C8.7,3.5,3.5,8.7,3.5,15S8.7,26.5,15,26.5S26.5,21.3,26.5,15S21.3,3.5,15,3.5z"/><path fill="#c74343" d="M15,2c7.2,0,13,5.8,13,13s-5.8,13-13,13S2,22.2,2,15S7.8,2,15,2 M15,27c6.6,0,12-5.4,12-12 S21.6,3,15,3S3,8.4,3,15S8.4,27,15,27 M15,1C7.3,1,1,7.3,1,15s6.3,14,14,14s14-6.3,14-14S22.7,1,15,1L15,1z M15,26 C8.9,26,4,21.1,4,15S8.9,4,15,4s11,4.9,11,11S21.1,26,15,26L15,26z"/><path fill="#fff" d="M15,4c-3.8,0-7.2,1.9-9.1,4.9l-2-2.3c-1,1.3-1.8,2.8-2.2,4.4h3.2C4.3,12.2,4,13.6,4,15 c0,6.1,4.9,11,11,11s11-4.9,11-11S21.1,4,15,4z"/><path fill="#c5d4de" d="M15 5A1 1 0 1 0 15 7 1 1 0 1 0 15 5zM15 23A1 1 0 1 0 15 25 1 1 0 1 0 15 23zM6 14A1 1 0 1 0 6 16 1 1 0 1 0 6 14zM24 14A1 1 0 1 0 24 16 1 1 0 1 0 24 14z"/><path fill="#f78f8f" d="M3.5 8.5L3.5 3.2 8.8 8.5z"/><path fill="#c74343" d="M4,4.4L7.6,8H4V4.4 M3,2v7h7L3,2L3,2z"/><path fill="#f78f8f" d="M5.5,7.6L4.8,7c0.7-0.9,1.4-1.6,2.3-2.3l0.6,0.8C6.9,6.1,6.2,6.8,5.5,7.6z"/><path fill="#36404d" d="M10.6 17.6h3.6v1.5H8.5v-.6c0-.4.1-.8.2-1.2s.3-.6.5-.9.5-.5.7-.7.5-.4.7-.6c.2-.2.5-.3.6-.5s.3-.3.5-.5.2-.3.3-.5.1-.3.1-.5c0-.4-.1-.6-.3-.8S11.4 12 11 12c-.7 0-1.4.3-2.1.9v-1.6c.7-.5 1.6-.7 2.5-.7.4 0 .8.1 1.1.2s.6.3.9.5.4.5.5.8.2.6.2 1c0 .4-.1.7-.2 1s-.3.6-.5.8-.4.5-.7.7-.5.4-.8.6c-.2.1-.4.3-.5.4s-.3.3-.5.4-.2.3-.3.4S10.6 17.5 10.6 17.6zM20.5 10.7V16h1v1.4h-1v1.7h-1.7v-1.7h-3.7v-1.4c.3-.4.7-.8 1-1.2.3-.4.7-.9 1-1.3s.6-.9.9-1.4.5-.9.7-1.3L20.5 10.7 20.5 10.7zM16.8 16h2v-2.9c-.1.3-.3.5-.4.8s-.3.5-.5.8-.4.5-.5.7S17 15.8 16.8 16z"/></svg>