<?xml version="1.0" encoding="utf-8"?>
<!-- Generator: Adobe Illustrator 24.3.0, SVG Export Plug-In . SVG Version: 6.00 Build 0)  -->
<svg version="1.1"
	 id="svg5649" inkscape:version="0.48.4 r9939" sodipodi:docname="routelink.svg" xmlns:cc="http://creativecommons.org/ns#" xmlns:dc="http://purl.org/dc/elements/1.1/" xmlns:inkscape="http://www.inkscape.org/namespaces/inkscape" xmlns:rdf="http://www.w3.org/1999/02/22-rdf-syntax-ns#" xmlns:sodipodi="http://sodipodi.sourceforge.net/DTD/sodipodi-0.dtd" xmlns:svg="http://www.w3.org/2000/svg"
	 xmlns="http://www.w3.org/2000/svg" xmlns:xlink="http://www.w3.org/1999/xlink" x="0px" y="0px" viewBox="0 0 300 140"
	 style="enable-background:new 0 0 300 140;" xml:space="preserve">
<style type="text/css">
	.st0{enable-background:new    ;}
	.st1{fill:#53535F;}
	.st2{fill:#E94446;}
</style>
<sodipodi:namedview  bordercolor="#666666" borderopacity="1.0" id="base" inkscape:current-layer="layer1" inkscape:cx="102.79143" inkscape:cy="68.577782" inkscape:document-units="px" inkscape:pageopacity="0.0" inkscape:pageshadow="2" inkscape:window-height="776" inkscape:window-maximized="1" inkscape:window-width="1231" inkscape:window-x="49" inkscape:window-y="24" inkscape:zoom="3.2257584" pagecolor="#ffffff" showgrid="false">
	</sodipodi:namedview>
<g id="layer1" transform="translate(0,-912.36218)" inkscape:groupmode="layer" inkscape:label="Layer 1">
	
		<g id="g4528" transform="matrix(1.2590133,0,0,1.2590133,-422.43205,17.836699)" inkscape:export-filename="/var/www/mediatech/routelink/wordpress/wp-content/themes/routelink/images/content/routelink.png" inkscape:export-xdpi="90" inkscape:export-ydpi="90">
		<g class="st0">
			<g>
				<path class="st1" d="M338.3,780.1v-28.6H353c2.7,0,4.8,0.2,6.3,0.7c1.4,0.5,2.6,1.3,3.5,2.6s1.3,2.8,1.3,4.6c0,1.6-0.3,3-1,4.1
					c-0.7,1.2-1.6,2.1-2.8,2.8c-0.8,0.5-1.8,0.8-3.1,1.1c1.1,0.4,1.8,0.7,2.3,1.1c0.3,0.2,0.8,0.7,1.4,1.5s1,1.4,1.2,1.8l4.3,8.3
					h-10l-4.7-8.8c-0.6-1.1-1.1-1.9-1.6-2.2c-0.6-0.4-1.4-0.7-2.2-0.7h-0.8V780h-8.8V780.1z M347.2,763.1h3.7c0.4,0,1.2-0.1,2.3-0.4
					c0.6-0.1,1.1-0.4,1.4-0.9c0.4-0.5,0.6-1,0.6-1.7c0-0.9-0.3-1.6-0.9-2.1s-1.7-0.7-3.3-0.7h-3.9L347.2,763.1L347.2,763.1z"/>
				<path class="st1" d="M366.8,769.8c0-3.2,1.1-5.8,3.2-7.8s5-3.1,8.7-3.1c4.2,0,7.3,1.2,9.4,3.6c1.7,1.9,2.6,4.3,2.6,7.2
					c0,3.2-1.1,5.8-3.2,7.8s-5,3.1-8.8,3.1c-3.3,0-6-0.8-8.1-2.5C368,776,366.8,773.2,366.8,769.8z M374.7,769.8
					c0,1.8,0.4,3.2,1.1,4.1c0.7,0.9,1.7,1.3,2.8,1.3c1.1,0,2.1-0.4,2.8-1.3c0.7-0.9,1.1-2.3,1.1-4.2c0-1.8-0.4-3.1-1.1-4
					s-1.7-1.3-2.8-1.3c-1.2,0-2.1,0.4-2.9,1.3C375.1,766.6,374.7,768,374.7,769.8z"/>
				<path class="st1" d="M416.3,780.1h-7.4v-3.4c-1.1,1.4-2.2,2.4-3.3,2.9c-1.1,0.6-2.5,0.9-4.2,0.9c-2.2,0-3.9-0.7-5.1-2
					s-1.9-3.3-1.9-6v-13.2h8v11.4c0,1.3,0.2,2.2,0.7,2.8c0.5,0.5,1.2,0.8,2,0.8c1,0,1.7-0.4,2.3-1.1c0.6-0.7,0.9-2,0.9-3.9v-10h7.9
					v20.8H416.3z"/>
				<path class="st1" d="M430.7,751.5v7.9h4.4v5.8h-4.4v7.3c0,0.9,0.1,1.5,0.3,1.8c0.3,0.4,0.7,0.7,1.4,0.7c0.6,0,1.4-0.2,2.5-0.5
					l0.6,5.5c-2,0.4-3.8,0.6-5.5,0.6c-2,0-3.4-0.3-4.4-0.8c-0.9-0.5-1.6-1.3-2.1-2.3c-0.4-1-0.7-2.7-0.7-5v-7.3h-2.9v-5.8h2.9v-3.8
					L430.7,751.5z"/>
				<path class="st1" d="M461.9,771.7H446c0.1,1.3,0.5,2.2,1,2.9c0.8,0.9,1.8,1.3,3,1.3c0.8,0,1.5-0.2,2.2-0.6
					c0.4-0.2,0.9-0.7,1.4-1.3l7.8,0.7c-1.2,2.1-2.6,3.6-4.3,4.5c-1.7,0.9-4.1,1.4-7.3,1.4c-2.7,0-4.9-0.4-6.5-1.2s-2.9-2-3.9-3.7
					s-1.6-3.7-1.6-5.9c0-3.2,1-5.9,3.1-7.9s4.9-3,8.6-3c3,0,5.3,0.4,7,1.3c1.7,0.9,3,2.2,3.9,3.9s1.3,3.9,1.3,6.7v0.9H461.9z
					 M453.8,767.9c-0.2-1.5-0.6-2.6-1.2-3.3c-0.7-0.7-1.6-1-2.6-1c-1.3,0-2.3,0.5-3,1.5c-0.5,0.6-0.8,1.6-0.9,2.8H453.8z"/>
			</g>
		</g>
		<g>
			<g>
				<path class="st2" d="M466.1,751.5h8.8v21.6h13.8v7.1H466v-28.7H466.1z"/>
				<path class="st2" d="M493.1,751.5h8.9v28.6h-8.9V751.5z"/>
				<path class="st2" d="M508.4,751.5h8.3l10.8,15.8v-15.8h8.3v28.6h-8.3l-10.7-15.7v15.7h-8.3v-28.6H508.4z"/>
				<path class="st2" d="M541.7,751.5h8.8v10.8l9.3-10.8h11.8l-10.4,10.8l10.9,17.8h-10.9l-6-11.8l-4.6,4.8v7h-8.8L541.7,751.5
					L541.7,751.5z"/>
			</g>
		</g>
		<path id="path3000" inkscape:connector-curvature="0" class="st1" d="M394.1,723.2c-19.8,0-37.2,9-47.7,22.7
			c12.6-8.3,29.4-13.4,47.7-13.4c18.3,0,35,5.1,47.6,13.4C431.2,732.2,413.8,723.2,394.1,723.2z"/>
		<path id="path4524" inkscape:connector-curvature="0" class="st1" d="M514.8,812.4c-20,0-37.6-9.9-48.2-25.1
			c12.8,9.2,29.7,14.8,48.2,14.8s35.4-5.6,48.2-14.8C552.4,802.5,534.8,812.4,514.8,812.4z"/>
	</g>
</g>
</svg>
