<svg xmlns="http://www.w3.org/2000/svg" width="48" height="48" viewBox="0 0 48 48"><path fill="#FFECB3" d="M29 10L17 6 5 10 5 42 17 38 29 42 41 38 41 6z"/><path fill="#FFE082" d="M17 6L17 38 29 42 29 10z"/><path fill="#E57373" d="M42.678,8.142l-2.82-2.819c-0.429-0.43-1.126-0.43-1.555,0L36.975,6.65l4.376,4.375l1.327-1.328C43.107,9.268,43.107,8.572,42.678,8.142"/><path fill="#FF9800" d="M22.109 14.082H39.525000000000006V20.27H22.109z" transform="rotate(-45.001 30.818 17.176)"/><path fill="#B0BEC5" d="M36.521 6.837H39.615V13.026H36.521z" transform="rotate(134.983 38.069 9.932)"/><path fill="#FFC107" d="M22.473 21.152L21 27 26.848 25.528z"/><path fill="#37474F" d="M21.744 24.044L21 27 23.956 26.256z"/></svg>