<svg xmlns="http://www.w3.org/2000/svg" width="80" height="80" viewBox="0 0 30 30">
    <path fill="#bae0bd"
        d="M22.808 28.5c-.445 0-.878-.089-1.286-.266-2.537-1.1-7.443-3.595-11.802-7.954S2.866 11.014 1.767 8.478c-.538-1.239-.258-2.665.711-3.634l2.746-2.746c.385-.386.899-.598 1.444-.598s1.059.212 1.445.599l3.598 3.598c.386.386.599.899.599 1.445s-.212 1.059-.599 1.445l-3.825 3.825.112.301c.045.121 1.132 2.995 3.713 5.576 2.581 2.581 5.455 3.668 5.576 3.713l.301.112 3.825-3.825c.386-.386.899-.599 1.445-.599s1.059.212 1.445.599l3.598 3.598c.386.386.599.899.599 1.445s-.212 1.059-.599 1.445l-2.746 2.746a3.342 3.342 0 01-2.347.977z" />
    <path fill="#5e9c76"
        d="M6.669 2c.412 0 .8.161 1.092.452l3.598 3.598c.292.292.452.679.452 1.092 0 .412-.161.8-.452 1.092L7.76 11.831l-.454.454.224.602c.047.125 1.171 3.098 3.828 5.755s5.63 3.781 5.755 3.828l.602.224.454-.454 3.598-3.598a1.532 1.532 0 011.092-.452c.412 0 .8.161 1.092.452l3.598 3.598c.29.291.451.679.451 1.091 0 .412-.161.8-.452 1.092l-2.746 2.746a2.843 2.843 0 01-1.994.831c-.376 0-.742-.076-1.086-.225-2.504-1.086-7.347-3.549-11.648-7.849-4.3-4.3-6.763-9.143-7.849-11.648-.455-1.048-.217-2.257.606-3.08l2.746-2.746A1.535 1.535 0 016.669 2m0-1c-.651 0-1.303.248-1.799.745L2.124 4.491C1.025 5.59.689 7.25 1.307 8.676c1.222 2.819 3.733 7.631 8.059 11.957 4.326 4.326 9.138 6.837 11.957 8.059.479.208.984.308 1.485.308.993 0 1.971-.393 2.701-1.124l2.746-2.746a2.545 2.545 0 000-3.598l-3.598-3.598a2.536 2.536 0 00-1.799-.745c-.651 0-1.302.248-1.799.745l-3.598 3.598s-2.863-1.064-5.397-3.598c-2.533-2.533-3.598-5.397-3.598-5.397l3.598-3.598a2.545 2.545 0 000-3.598L8.467 1.745A2.532 2.532 0 006.669 1z" />
    </svg>