<svg xmlns="http://www.w3.org/2000/svg" width="48" height="48" viewBox="0 0 48 48"><path fill="#B0BEC5" d="M22.436 36.559c-.431-.435-.568-1.106-.294-1.692.352-.751 1.244-1.074 1.994-.724.036.018 4.847-7.496 4.847-7.496l6.019-1.6c-1 3-7.985 10.342-7.985 10.342-1.576 1.622-2.848 2.079-4.149 1.471C22.7 36.782 22.556 36.68 22.436 36.559zM31.564 13.271c.375-.674.918-1.208 1.547-1.596.002 0 .002 0 .002 0-.258-.179-.617-.38-1.113-.628-5.459-2.73-11.769-1.984-12.102-1.977C18.83 9.092 17.978 9.976 18 11.047c.022 1.071.907 1.976 1.978 1.953.074-.002 6.801-1.532 11.31.082C31.322 13.095 31.439 13.175 31.564 13.271z"/><path fill="#546E7A" d="M14.307,21.904c-0.117-0.041-0.234-0.082-0.35-0.133c-0.709-0.306-1.32-0.738-1.821-1.25c-0.431-0.439-0.777-0.939-1.029-1.475c-0.508,0.453-0.88,1.064-1.002,1.787C9.413,24.926,13,27.047,15,27.047c0.001,0,0.038-0.002,0.087-0.005C14.223,25.529,13.91,23.764,14.307,21.904z"/><path fill="#CFD8DC" d="M32.622,28.695c-3.825,2.918-9.119,4.051-13.622,2.352c-4.502-1.695-7.065-5.855-5.368-10.357c1.697-4.503,6.724-6.777,11.226-5.079c0.519,0.195,3.082,1.163,4.447,1.678c0.68,0.257,1.762-0.183,2.041-0.925C37,16.047,41.042,19.323,32.622,28.695z"/><path fill="#78909C" d="M41.719,19.838c-0.76,2.325-5.363,0.567-7.68-0.196c-2.316-0.763-3.578-3.265-2.818-5.59c0.76-2.326,3.254-3.593,5.57-2.831C39.107,11.984,43.094,15.628,41.719,19.838z"/><path fill="#78909C" d="M33.113,11.675L33.113,11.675c-0.002,0.001-0.004,0.002-0.006,0.003c0.658-0.406,1.408-0.638,2.195-0.659c-0.181-0.179-0.566-0.435-1.304-0.972C29.07,6.449,22.462,6.041,22.131,6.01c-1.063-0.105-2.015,0.67-2.122,1.734c-0.045,0.456,0.078,0.911,0.309,1.295C21.857,8.928,27.249,8.671,32,11.047C32.496,11.295,32.855,11.496,33.113,11.675z"/><path fill="#455A64" d="M40,16.047c0,0-1.447,0-2,0c-1.334,0-2-2-2-2s1.448,0,2,0C39.334,14.047,40,16.047,40,16.047z"/><path d="M38 14.047A1 1 0 1 0 38 16.047A1 1 0 1 0 38 14.047Z"/><path fill="#90A4AE" d="M26 40.052L28 42h3v-.953c0 0 0-2-2-2L26 40.052zM22.933 21.926C29.375 25.5 28 35.172 20.458 37.464c0 0 1.792-4.792-2.826-6.587-3.126-1.215-4.757-4.252-2.637-7.243C16.717 21.205 20.013 20.276 22.933 21.926z"/><path fill="#90A4AE" d="M28,42.047l1.045-0.527c0.574-0.942,1.566-1.23,0.622-1.806l-5.941-3.774c-0.944-0.572,1.461-7.205,1.461-7.205l-4.729,8.729L28,42.047z"/><g><path fill="#2196F3" d="M16.563 9H10l-1 2h7.007C16.009 10.27 16.211 9.588 16.563 9zM16.134 12H9l-1 2h9.37C16.779 13.478 16.341 12.786 16.134 12zM15.659 15H8l-1 2h6.5C14.128 16.237 14.853 15.562 15.659 15z"/></g></svg>