<?xml version="1.0" standalone="no"?>
<!DOCTYPE svg PUBLIC "-//W3C//DTD SVG 20010904//EN"
 "http://www.w3.org/TR/2001/REC-SVG-20010904/DTD/svg10.dtd">
<svg version="1.0" xmlns="http://www.w3.org/2000/svg"
 width="522.000000pt" height="522.000000pt" viewBox="0 0 522.000000 522.000000"
 preserveAspectRatio="xMidYMid meet">
<metadata>
Created by potrace 1.14, written by Peter Selinger 2001-2017
</metadata>
<g transform="translate(0.000000,522.000000) scale(0.100000,-0.100000)"
fill="#000000" stroke="none">
<path d="M1648 4655 c-2 -1 -46 -5 -98 -8 -117 -8 -165 -14 -255 -33 -38 -9
-80 -17 -91 -20 -56 -11 -209 -59 -300 -95 -268 -105 -509 -262 -709 -464 -80
-81 -171 -185 -162 -185 3 0 42 22 87 50 305 185 751 338 1122 386 24 3 54 7
68 10 164 26 715 26 845 -1 11 -2 42 -7 69 -10 72 -9 201 -34 291 -57 44 -11
90 -22 102 -24 55 -10 309 -101 420 -150 130 -58 196 -91 310 -161 40 -23 75
-43 79 -43 10 0 -89 113 -171 194 -257 255 -591 443 -949 536 -61 16 -122 31
-136 34 -14 2 -41 7 -60 11 -100 19 -449 41 -462 30z"/>
<path d="M9 3730 c0 -13 0 -2173 0 -2204 l1 -23 345 0 345 0 0 455 0 455 73
-5 c41 -3 89 -13 112 -24 49 -23 113 -86 141 -139 11 -22 37 -69 56 -105 64
-117 184 -343 248 -465 34 -66 71 -134 82 -152 l19 -32 389 1 c215 0 390 3
390 7 0 7 -6 20 -147 291 -184 355 -208 398 -251 460 -26 36 -69 88 -97 117
-49 48 -157 113 -190 113 -8 0 -15 5 -15 10 0 6 8 10 19 10 38 0 182 59 241
99 119 81 213 211 246 340 19 78 22 265 4 331 -7 25 -14 54 -16 65 -10 54 -71
153 -133 215 -104 106 -223 154 -438 179 -114 13 -1423 14 -1424 1z m1113
-454 c135 -16 200 -77 206 -196 3 -53 0 -75 -17 -107 -55 -108 -127 -133 -408
-140 l-193 -5 -1 58 c0 33 -3 134 -5 226 l-4 167 38 3 c63 5 319 1 384 -6z"/>
<path d="M2805 3670 c-71 -37 -197 -103 -280 -146 -82 -42 -163 -85 -180 -94
l-30 -17 0 -146 0 -147 -30 -1 c-16 -1 -67 -1 -112 -1 -79 1 -83 0 -83 -21 -1
-34 -1 -400 -1 -419 1 -16 13 -18 114 -18 l112 0 1 -332 c0 -370 6 -464 35
-569 43 -154 135 -242 299 -286 104 -28 400 -24 577 8 96 17 91 12 82 74 -4
30 -10 87 -14 127 -4 40 -9 87 -11 103 -2 17 -6 55 -9 85 -3 30 -7 56 -9 58
-2 2 -31 -4 -63 -12 -88 -23 -133 -27 -175 -16 -38 11 -75 51 -84 92 -4 19 -8
565 -5 645 1 22 3 23 173 25 l172 3 -1 216 c0 119 -3 221 -6 226 -4 7 -68 10
-167 10 -88 0 -164 3 -167 7 -3 3 -6 143 -6 311 0 168 0 305 -1 304 0 0 -59
-31 -131 -69z"/>
<path d="M3430 2612 l0 -1127 888 1 c488 1 889 2 892 3 3 0 5 126 5 279 l0
277 -530 1 c-292 1 -535 2 -541 3 -8 1 -11 229 -12 829 0 455 -1 835 -1 845
-1 16 -25 17 -351 17 l-350 0 0 -1128z"/>
<path d="M1852 1318 c249 -298 591 -526 968 -646 109 -35 242 -67 315 -78 28
-3 59 -8 70 -11 116 -22 469 -21 625 3 111 17 152 25 265 56 374 99 701 288
961 554 92 94 161 174 149 174 -3 0 -32 -16 -63 -37 -131 -84 -370 -195 -557
-260 -157 -54 -403 -113 -580 -138 -22 -3 -51 -8 -65 -10 -28 -5 -131 -14
-235 -20 -91 -6 -322 -6 -405 0 -119 8 -246 21 -290 30 -14 2 -41 7 -60 10
-318 48 -709 182 -975 333 -33 19 -76 43 -95 54 -19 11 -39 24 -44 29 -6 5
-14 9 -19 9 -5 0 11 -23 35 -52z"/>
</g>
</svg>
