<?xml version="1.0" encoding="utf-8"?>
<!-- Generator: Adobe Illustrator 24.3.0, SVG Export Plug-In . SVG Version: 6.00 Build 0)  -->
<svg version="1.1" id="Layer_1" xmlns="http://www.w3.org/2000/svg" xmlns:xlink="http://www.w3.org/1999/xlink" x="0px" y="0px"
	 viewBox="0 0 512 512" style="enable-background:new 0 0 512 512;" xml:space="preserve">
<style type="text/css">
	.st0{fill:#FFC50B;}
	.st1{fill:url(#SVGID_1_);}
	.st2{opacity:0.87;}
	.st3{opacity:9.100000e-02;fill:#C5946B;enable-background:new    ;}
	.st4{opacity:0.182;fill:#BD8D66;enable-background:new    ;}
	.st5{opacity:0.273;fill:#B58560;enable-background:new    ;}
	.st6{opacity:0.364;fill:#AD7E5B;enable-background:new    ;}
	.st7{opacity:0.455;fill:#A57655;enable-background:new    ;}
	.st8{opacity:0.545;fill:#9D6F50;enable-background:new    ;}
	.st9{opacity:0.636;fill:#95674A;enable-background:new    ;}
	.st10{opacity:0.727;fill:#8D6045;enable-background:new    ;}
	.st11{opacity:0.818;fill:#85583F;enable-background:new    ;}
	.st12{opacity:0.909;fill:#7D513A;enable-background:new    ;}
	.st13{fill:#754934;}
	.st14{opacity:0.24;}
	.st15{opacity:9.100000e-02;fill:#CB9A70;enable-background:new    ;}
	.st16{opacity:0.182;fill:#C9976E;enable-background:new    ;}
	.st17{opacity:0.273;fill:#C7956D;enable-background:new    ;}
	.st18{opacity:0.364;fill:#C5926B;enable-background:new    ;}
	.st19{opacity:0.455;fill:#C3906A;enable-background:new    ;}
	.st20{opacity:0.545;fill:#C08D68;enable-background:new    ;}
	.st21{opacity:0.636;fill:#BE8B67;enable-background:new    ;}
	.st22{opacity:0.727;fill:#BC8865;enable-background:new    ;}
	.st23{opacity:0.818;fill:#BA8664;enable-background:new    ;}
	.st24{opacity:0.909;fill:#B88362;enable-background:new    ;}
	.st25{fill:#B68161;}
	.st26{fill:url(#SVGID_2_);}
	.st27{fill:url(#SVGID_3_);}
	.st28{fill:url(#SVGID_4_);}
	.st29{fill:url(#SVGID_5_);}
	.st30{opacity:0.1;fill:url(#SVGID_6_);enable-background:new    ;}
	.st31{opacity:0.59;fill:url(#SVGID_7_);enable-background:new    ;}
	.st32{opacity:0.1;fill:url(#SVGID_8_);enable-background:new    ;}
	.st33{opacity:2.000000e-02;fill:url(#SVGID_9_);enable-background:new    ;}
	.st34{opacity:2.000000e-02;fill:url(#SVGID_10_);enable-background:new    ;}
	.st35{opacity:2.000000e-02;fill:url(#SVGID_11_);enable-background:new    ;}
	.st36{opacity:2.000000e-02;fill:url(#SVGID_12_);enable-background:new    ;}
</style>
<path class="st0" d="M99.1,451c-0.2-0.8-0.9-1.3-1.8-1.4l-27.5-4l-12.3-24.9c-0.7-1.4-3.1-1.4-3.9,0l-12.3,24.9l-27.5,4
	c-0.8,0.1-1.4,0.7-1.8,1.4c-0.2,0.8,0,1.7,0.6,2.2l19.9,19.3l-4.6,27.4c-0.1,0.8,0.2,1.7,0.9,2.1c0.7,0.4,1.5,0.6,2.2,0.1l24.5-12.9
	l24.6,12.9c0.3,0.1,0.7,0.2,1,0.2c0.4,0,0.9-0.1,1.2-0.4c0.7-0.4,1-1.3,0.9-2.1l-4.6-27.4l19.9-19.3C99.1,452.5,99.3,451.8,99.1,451
	z M200,451c-0.2-0.8-0.9-1.3-1.8-1.4l-27.5-4l-12.3-24.9c-0.7-1.4-3.1-1.4-3.9,0l-12.3,24.9l-27.5,4c-0.8,0.1-1.4,0.7-1.8,1.4
	c-0.2,0.8,0,1.7,0.6,2.2l19.9,19.3l-4.8,27.4c-0.1,0.8,0.2,1.7,0.9,2.1c0.7,0.4,1.5,0.6,2.2,0.1l24.6-12.9l24.5,12.9
	c0.3,0.1,0.7,0.2,1,0.2c0.4,0,0.9-0.1,1.2-0.4c0.7-0.4,1-1.3,0.9-2.1l-4.6-27.4l19.9-19.3C200,452.5,200.2,451.8,200,451z
	 M301.9,451c-0.2-0.8-0.9-1.3-1.8-1.4l-27.5-4l-12.3-24.9c-0.7-1.4-3.1-1.4-3.9,0l-12.3,24.9l-27.5,4c-0.8,0.1-1.4,0.7-1.8,1.4
	c-0.2,0.8,0,1.7,0.6,2.2l19.9,19.3l-4.8,27.4c-0.1,0.8,0.2,1.7,0.9,2.1c0.7,0.4,1.5,0.6,2.2,0.1l24.6-12.9l24.6,12.9
	c0.3,0.1,0.7,0.2,1,0.2c0.4,0,0.9-0.1,1.2-0.4c0.7-0.4,1-1.3,0.9-2.1l-4.6-27.4l19.9-19.3C301.9,452.5,302.1,451.8,301.9,451z
	 M400.7,451c-0.2-0.8-0.9-1.3-1.8-1.4l-27.5-4l-12.3-24.9c-0.8-1.4-3.1-1.4-3.9,0L343,445.6l-27.5,4c-0.8,0.1-1.4,0.7-1.8,1.4
	c-0.2,0.8,0,1.7,0.6,2.2l19.9,19.3l-4.8,27.4c-0.1,0.8,0.2,1.7,0.9,2.1c0.7,0.4,1.5,0.6,2.2,0.1l24.6-12.9l24.5,12.9
	c0.3,0.1,0.7,0.2,1,0.2c0.4,0,0.9-0.1,1.2-0.4c0.7-0.4,1-1.3,0.9-2.1l-4.6-27.4l19.9-19.3C400.7,452.5,400.9,451.8,400.7,451z
	 M501.5,451c-0.2-0.8-0.9-1.3-1.8-1.4l-27.5-4l-12.3-24.9c-0.7-1.4-3.1-1.4-3.9,0l-12.3,24.9l-27.5,4c-0.8,0.1-1.4,0.7-1.8,1.4
	c-0.2,0.8,0,1.7,0.6,2.2l19.9,19.3l-4.6,27.4c-0.1,0.8,0.2,1.7,0.9,2.1c0.7,0.4,1.5,0.6,2.2,0.1l24.6-12.9l24.6,12.9
	c0.3,0.1,0.7,0.2,1,0.2c0.4,0,0.9-0.1,1.2-0.4c0.7-0.4,1-1.3,0.9-2.1l-4.6-27.4l19.9-19.3C501.6,452.5,501.7,451.8,501.5,451z"/>
<radialGradient id="SVGID_1_" cx="189.5087" cy="295.441" r="269.8722" gradientTransform="matrix(1 0 0 -0.9024 0 447.9343)" gradientUnits="userSpaceOnUse">
	<stop  offset="0" style="stop-color:#CD9C71"/>
	<stop  offset="0.629" style="stop-color:#B68161"/>
	<stop  offset="0.712" style="stop-color:#B17C5D"/>
	<stop  offset="0.816" style="stop-color:#A16F53"/>
	<stop  offset="0.93" style="stop-color:#885941"/>
	<stop  offset="0.999" style="stop-color:#754934"/>
</radialGradient>
<path class="st1" d="M81.8,174.3h30.5c17.9,0,34.8-7.6,47.1-20.6c5.6-6,12.1-11.5,19.2-16.4c1.4-1,2.9-1.7,4.4-2.6l26.6-18.7
	l33.3-23.5l2.6-2.7c9.2-9.8,15.9-21.9,19.4-35l7.7-28.7c1.5-5.6,6.5-9.4,12.2-9.3c36.4,2.7,42.5,66.8,14.3,131.8
	c-0.4,0.8-0.9,2.1-0.4,3.5c0.6,1.8,3.3,2.7,8.4,3.1c4.5,0.4,72.6,6.5,87.3,6.5c8.4,0-23.4,180.3-23.4,194.7
	c0,16.2-14,32.1-30.2,32.1c0,0-136.7,3.1-162.9-7.3c-9.2-3.6-17.3-10-24-17.9c-12.4-14.5-30.3-23.2-49.3-23.2H81.8
	c-6.8,0-12.3-37.1-12.3-82.9C69.5,211.5,75,174.3,81.8,174.3z"/>
<g class="st2">
	<path class="st3" d="M257.1,197c-1.2,7.2-0.2,14,2.6,19.9c3.7,7.8,3.2,17.1-2.7,23.4c-5.6,5.9-9,13.8-9.1,22.6c0,0.3,0,0.6,0,0.9
		c0.1,4.7,1.2,9.1,3.1,13.1c3.5,7.4,2.4,16.3-2.9,22.5c-0.9,1.1-1.8,2.2-2.5,3.4c-3.4,5.2-5.4,11.5-5.3,18.2l0,0
		c0,2.8,0.4,5.5,1.1,8.1c0.5,1.9,1.2,3.7,2,5.5c1.4,2.9,2,6,2,8.8c-0.1,2.1-0.5,4.4-1.7,6.5c-0.7,1.2-1.4,2.4-2.2,3.5
		c-3.2,4.3-4.8,9.6-4.1,15.6c1.3,11.1,12.8,19.8,23.9,20c0,0,0.5,0,0.6,0h32.4c15.9,0,26.8-8.9,27.7-21c0.5-7-2.1-13.3-6.7-17.8
		c10.7-5.5,18.1-16.5,18.1-29.4l0,0c0-10.9-5.3-20.5-13.4-26.5c-0.2-0.2-0.1-0.5,0.2-0.7c12.1-4.9,20.7-16.7,20.7-30.6
		c0-11.7-6.1-21.8-15.2-27.7c-0.3-0.2-0.2-0.6,0.2-0.7c15.2-4.5,25.8-19.5,23.3-36.6c-2.4-16.5,7.2-37-9.5-37l-39.5-1.8
		c-1.4-0.1-2.8-0.1-4.2,0.1C274.5,162.4,259.8,181.5,257.1,197z"/>
	<path class="st4" d="M262.7,197c-1.2,7.2-0.2,14,2.6,19.9c3.7,7.8,3.2,17.1-2.7,23.4c-5.6,5.9-9,13.8-9.1,22.5c0,0.3,0,0.6,0,0.9
		c0.1,4.7,1.2,9.1,3,13.1c3.4,7.5,2.4,16.3-3.1,22.5c-0.9,1.1-1.8,2.2-2.6,3.4c-3.4,5.2-5.4,11.6-5.3,18.4l0,0
		c0,2.8,0.4,5.6,1.1,8.2c0.5,1.9,1.2,3.7,2.1,5.5c1.5,3,2.3,6,2.4,8.6c0.1,2-0.2,4.3-1.7,6.5c-0.8,1.1-1.5,2.3-2.4,3.3
		c-3.3,4.2-5.1,9.5-4.4,15.5c1.2,11.2,12.6,19.9,23.8,20.2c0.1,0,0.6,0,0.6,0h32.4c15.9,0,26.8-8.9,27.7-21c0.5-7-2.1-13.3-6.7-17.8
		c10.7-5.5,18.1-16.5,18.1-29.4l0,0c0-10.9-5.3-20.5-13.4-26.6c-0.2-0.2-0.1-0.5,0.2-0.6c12.1-4.9,20.7-16.7,20.7-30.6
		c0-11.7-6.1-21.9-15.3-27.8c-0.2-0.2-0.1-0.5,0.3-0.6c15.2-4.5,25.8-19.5,23.3-36.6c-2.4-16.5,7.1-36.9-9.5-36.9l-41-0.7
		c-1.4-0.1-2.7-0.1-4.1,0.1C278.8,163.6,265.4,181.6,262.7,197z"/>
	<path class="st5" d="M268.3,197c-1.2,7.2-0.2,14,2.6,19.9c3.7,7.8,3.2,17.1-2.7,23.4c-5.6,5.8-9,13.7-9.1,22.4c0,0.3,0,0.6,0,0.9
		c0.1,4.6,1.1,9.1,2.9,13.1c3.4,7.5,2.3,16.4-3.2,22.6c-0.9,1.1-1.8,2.2-2.6,3.4c-3.5,5.3-5.4,11.8-5.3,18.5l0,0
		c0,2.8,0.4,5.6,1.2,8.2c0.6,1.9,1.3,3.8,2.2,5.6c1.5,3,2.6,6,2.9,8.5c0.2,1.8,0.2,4.2-1.6,6.4c-0.9,1.1-1.7,2.2-2.6,3.2
		c-3.5,4.1-5.3,9.3-4.7,15.5c1.1,11.2,12.5,20.1,23.8,20.4c0.1,0,0.6,0,0.7,0h32.5c15.9,0,26.8-8.9,27.7-21c0.5-7-2.1-13.3-6.7-17.8
		c10.7-5.5,18.1-16.5,18.1-29.4l0,0c0-10.9-5.3-20.6-13.5-26.6c-0.1-0.2,0-0.5,0.3-0.6c12.1-4.9,20.7-16.7,20.7-30.6
		c0-11.7-6.2-22-15.3-27.8c-0.1-0.2,0-0.5,0.3-0.6c15.1-4.5,25.8-19.5,23.3-36.6c-2.4-16.5,7.1-36.9-9.6-36.9l-42.6,0.4
		c-1.3,0-2.7,0-3.9,0.2C283.1,164.7,271,181.6,268.3,197z"/>
	<path class="st6" d="M273.9,197c-1.2,7.2-0.2,14,2.6,19.9c3.7,7.8,3.2,17.1-2.7,23.4c-5.5,5.8-9,13.7-9.1,22.4c0,0.3,0,0.6,0,0.9
		c0.1,4.6,1.1,9,2.9,13c3.3,7.6,2.2,16.5-3.4,22.6c-1,1.1-1.8,2.2-2.7,3.4c-3.5,5.3-5.4,11.9-5.3,18.7l0,0c0.1,2.9,0.5,5.6,1.3,8.2
		c0.6,1.9,1.4,3.8,2.3,5.6c1.6,3,2.9,6,3.4,8.3c0.4,1.6,0.6,4.1-1.5,6.3c-1,1-1.8,2.1-2.8,3.1c-3.7,4-5.6,9.1-5,15.4
		c1,11.3,12.3,20.2,23.7,20.6c0.1,0,0.6,0,0.7,0h32.5c15.9,0,26.8-8.9,27.7-21c0.5-7-2.1-13.3-6.7-17.8
		c10.7-5.5,18.1-16.5,18.1-29.4l0,0c0-11-5.4-20.6-13.5-26.6c-0.1-0.2,0.1-0.4,0.4-0.6c12.1-4.9,20.7-16.7,20.7-30.6
		c0-11.8-6.2-22-15.4-27.9c-0.1-0.2,0.1-0.4,0.4-0.6c15.1-4.5,25.8-19.5,23.3-36.6c-2.4-16.5,7.1-36.8-9.6-36.8l-44.1,1.5
		c-1.3,0-2.6,0-3.8,0.2C287.4,165.8,276.6,181.6,273.9,197z"/>
	<path class="st7" d="M279.5,197c-1.2,7.2-0.2,14,2.6,19.9c3.7,7.8,3.2,17.1-2.7,23.4c-5.5,5.8-9,13.6-9.1,22.3c0,0.3,0,0.6,0,0.9
		c0.1,4.6,1.1,9,2.8,13c3.3,7.7,2.1,16.5-3.5,22.7c-1,1-1.9,2.2-2.7,3.5c-3.5,5.4-5.4,12.1-5.3,18.9l0,0c0.1,2.9,0.5,5.7,1.3,8.3
		c0.6,1.9,1.4,3.8,2.4,5.7c1.7,3,3.2,5.9,3.9,8.1c0.5,1.5,0.9,4-1.5,6.2c-1,0.9-2,2-3,3c-3.8,3.9-5.8,8.9-5.3,15.3
		c0.9,11.4,12.2,20.4,23.6,20.8c0.2,0,0.6,0,0.7,0h32.6c15.9,0,26.8-8.9,27.7-21c0.5-7-2.1-13.3-6.7-17.8
		c10.7-5.5,18.1-16.5,18.1-29.4l0,0c0-11-5.4-20.7-13.6-26.7c0-0.2,0.1-0.4,0.4-0.5c12.1-4.9,20.7-16.7,20.7-30.6
		c0-11.8-6.2-22-15.5-27.9c0-0.1,0.1-0.4,0.5-0.5c15.1-4.5,25.8-19.5,23.3-36.6c-2.4-16.5,7-36.8-9.6-36.8l-45.7,2.6
		c-1.2,0-2.5,0-3.7,0.2C291.7,167,282.2,181.6,279.5,197z"/>
	<path class="st8" d="M285.1,197c-1.2,7.2-0.2,14,2.6,19.9c3.7,7.8,3.2,17.1-2.7,23.4c-5.5,5.8-8.9,13.6-9.1,22.2c0,0.3,0,0.6,0,0.9
		c0.1,4.6,1,9,2.7,13c3.3,7.7,2,16.6-3.7,22.7c-1,1-1.9,2.2-2.7,3.5c-3.5,5.4-5.5,12.2-5.3,19.1l0,0c0.1,2.9,0.6,5.7,1.4,8.3
		c0.6,1.9,1.5,3.9,2.5,5.7c1.7,3.1,3.4,5.9,4.4,8c0.6,1.3,1.3,4-1.4,6.1c-1.1,0.9-2.1,1.9-3.2,2.9c-4,3.8-6.1,8.7-5.6,15.3
		c0.8,11.4,12.1,20.6,23.5,21c0.2,0,0.6,0,0.8,0h32.6c15.9,0,26.8-8.9,27.7-21c0.5-7-2.1-13.3-6.7-17.8
		c10.7-5.5,18.1-16.5,18.1-29.4l0,0c0-11-5.4-20.7-13.7-26.7c0-0.1,0.2-0.4,0.5-0.5c12.1-4.9,20.6-16.7,20.6-30.6
		c0-11.8-6.2-22.1-15.6-28c0-0.1,0.2-0.4,0.5-0.5c15.1-4.5,25.8-19.5,23.3-36.6c-2.4-16.5,7-36.7-9.7-36.7L320,165
		c-1.2,0-2.4,0.1-3.6,0.2C296,168.1,287.7,181.6,285.1,197z"/>
	<path class="st9" d="M290.7,197c-1.2,7.2-0.2,14,2.6,19.9c3.7,7.8,3.2,17.1-2.7,23.4c-5.5,5.8-8.9,13.5-9.1,22.1c0,0.3,0,0.6,0,0.9
		c0,4.5,1,9,2.7,13c3.2,7.8,1.9,16.7-3.9,22.8c-1,1-1.9,2.2-2.8,3.5c-3.5,5.4-5.5,12.4-5.2,19.2l0,0c0.1,2.9,0.6,5.7,1.5,8.4
		c0.7,1.9,1.6,3.9,2.7,5.8c1.8,3.1,3.7,5.9,4.9,7.8c0.7,1.2,1.7,3.9-1.3,6.1c-1.2,0.8-2.3,1.8-3.3,2.8c-4.2,3.7-6.4,8.6-6,15.2
		c0.7,11.5,11.9,20.7,23.4,21.2c0.2,0,0.6,0,0.8,0h32.7c15.9,0,26.8-8.9,27.7-21c0.5-7-2.1-13.3-6.7-17.8
		c10.7-5.5,18.1-16.5,18.1-29.4l0,0c0-11-5.4-20.7-13.7-26.8c0.1-0.1,0.3-0.3,0.6-0.5c12.1-4.9,20.6-16.7,20.6-30.6
		c0-11.8-6.3-22.1-15.6-28c0.1-0.1,0.3-0.3,0.6-0.4c15.1-4.5,25.8-19.5,23.3-36.6c-2.4-16.5,6.9-36.6-9.7-36.6l-48.8,4.8
		c-1.2,0-2.3,0.1-3.4,0.3C300.2,169.2,293.3,181.6,290.7,197z"/>
	<path class="st10" d="M296.3,197c-1.2,7.2-0.2,14,2.6,19.9c3.7,7.8,3.2,17.1-2.7,23.4c-5.5,5.8-8.9,13.5-9.1,22c0,0.3,0,0.6,0,0.9
		c0,4.5,0.9,8.9,2.6,13c3.2,7.8,1.9,16.7-4,22.8c-1,1-2,2.2-2.8,3.5c-3.5,5.5-5.5,12.5-5.2,19.4l0,0c0.1,2.9,0.6,5.8,1.6,8.4
		c0.7,1.9,1.6,3.9,2.8,5.8c1.9,3.1,3.9,5.9,5.3,7.6c0.9,1,2.1,3.9-1.2,6c-1.3,0.8-2.4,1.7-3.5,2.6c-4.4,3.6-6.6,8.4-6.3,15.1
		c0.6,11.6,11.8,20.9,23.3,21.4c0.2,0,0.6,0,0.9,0h32.8c15.9,0,26.8-8.9,27.7-21c0.5-7-2.1-13.3-6.7-17.8
		c10.7-5.5,18.1-16.5,18.1-29.4l0,0c0-11-5.5-20.8-13.8-26.8c0.1-0.1,0.3-0.3,0.6-0.4c12.1-4.9,20.6-16.7,20.6-30.6
		c0-11.9-6.3-22.2-15.7-28c0.1-0.1,0.4-0.3,0.7-0.4c15.1-4.5,25.8-19.5,23.3-36.6c-2.4-16.5,6.9-36.6-9.7-36.6l-50.4,5.9
		c-1.1,0-2.2,0.1-3.3,0.3C304.5,170.3,298.9,181.7,296.3,197z"/>
	<path class="st11" d="M301.9,197c-1.2,7.2-0.2,14,2.6,19.9c3.7,7.8,3.2,17.1-2.7,23.4c-5.5,5.7-8.9,13.4-9.1,22c0,0.3,0,0.6,0,0.9
		c0,4.5,0.9,8.9,2.5,13c3.2,7.9,1.8,16.8-4.2,22.9c-1,1-2,2.2-2.8,3.6c-3.6,5.5-5.5,12.7-5.2,19.6l0,0c0.1,2.9,0.7,5.8,1.6,8.5
		c0.7,1.9,1.7,4,2.9,5.9c1.9,3.2,4.1,6,5.8,7.5c1,0.9,2.5,3.8-1.2,5.9c-1.3,0.8-2.6,1.6-3.7,2.5c-4.5,3.5-6.9,8.2-6.6,15.1
		c0.6,11.6,11.6,21.1,23.3,21.5c0.3,0,0.6,0,0.9,0h32.8c15.9,0,26.8-8.9,27.7-21c0.5-7-2.1-13.3-6.7-17.8
		c10.7-5.5,18.1-16.5,18.1-29.4l0,0c0-11.1-5.5-20.8-13.8-26.8c0.2-0.1,0.4-0.3,0.7-0.4c12.1-5,20.6-16.7,20.6-30.6
		c0-11.9-6.3-22.3-15.8-28.1c0.2-0.1,0.4-0.2,0.8-0.3c15.1-4.5,25.8-19.5,23.3-36.6c-2.4-16.5,6.9-36.5-9.8-36.5l-51.9,7
		c-1.1,0.1-2.2,0.1-3.2,0.3C308.8,171.5,304.5,181.7,301.9,197z"/>
	<path class="st12" d="M307.5,197c-1.2,7.2-0.2,14,2.6,19.9c3.7,7.8,3.2,17.1-2.7,23.4c-5.5,5.7-8.9,13.4-9.1,21.9
		c0,0.3,0,0.6,0,0.9c0,4.5,0.9,8.9,2.5,12.9c3.1,8,1.7,16.9-4.3,22.9c-1,1-2,2.2-2.9,3.6c-3.6,5.5-5.5,12.8-5.2,19.8l0,0
		c0.1,3,0.7,5.9,1.7,8.5c0.7,1.9,1.8,4,3,5.9c2,3.2,4.4,6,6.3,7.3c1.1,0.7,2.9,3.8-1.1,5.8c-1.4,0.7-2.7,1.5-3.9,2.4
		c-4.7,3.4-7.1,8-6.9,15c0.5,11.7,11.5,21.3,23.2,21.7c0.3,0,0.7,0,1,0h32.9c15.9,0,26.8-8.9,27.7-21c0.5-7-2.1-13.3-6.7-17.8
		c10.7-5.5,18.1-16.5,18.1-29.4l0,0c0-11.1-5.5-20.9-13.9-26.9c0.2-0.1,0.5-0.2,0.8-0.4c12.1-5,20.6-16.7,20.6-30.6
		c0-11.9-6.4-22.3-15.8-28.1c0.2-0.1,0.5-0.2,0.8-0.3c15.1-4.5,25.8-19.5,23.3-36.6c-2.4-16.5,6.8-36.4-9.8-36.4l-53.5,8.1
		c-1.1,0.1-2.1,0.2-3.1,0.3C313.1,172.6,310.1,181.7,307.5,197z"/>
	<path class="st13" d="M396.6,263c0-12-6.4-22.4-15.9-28.2c15.6-4.2,26.7-19.4,24.2-36.9c-2.4-16.5,6.8-36.4-9.8-36.4l-55,9.2
		c-22.5,2.2-24.2,10.2-27,26.2c-1.2,7.2-0.2,14,2.6,19.9c3.7,7.8,3.2,17.1-2.7,23.4c-5.6,5.9-9.1,13.9-9.1,22.7
		c0,4.5,0.8,8.9,2.4,12.9c3.1,8,1.6,16.9-4.5,23c-1.1,1-2,2.2-2.9,3.6c-5.2,8-6.9,19.6-3.4,28.5c2,5.2,6.4,11.4,9.9,13.1
		c1.2,0.6,3.3,3.7-1,5.7c-7.5,3.5-11.6,8.3-11.3,17.2c0.4,12.1,12,21.9,24.1,21.9h32.9c15.9,0,26.8-8.9,27.7-21
		c0.5-7-2.1-13.3-6.7-17.8c10.7-5.5,18.1-16.5,18.1-29.4l0,0c0-11.1-5.5-20.9-13.9-26.9C387.7,289.1,396.6,277.1,396.6,263z"/>
</g>
<g class="st14">
	<path class="st15" d="M99.5,322.4h22.6c19.1,0,37,8.6,49.3,23.2c6.7,7.9,14.8,14.3,24,17.9c12,4.8,47.4,6.7,82.1,7.4
		c3.4,0.1,6.8,0.1,10.2,0.2c21.8,0.3,42.3,0.1,54.6,0c10.5-0.1,17.2-0.5,17.7-0.9c2.9-0.2,5.7-1,8.3-2.2c0.8-2.9,0.8-6.1,0.6-9.5
		c-0.1-2,0-7.3,0.1-14.9c-12.7,0.2-31.3,0.3-51.1,0c-9.5-0.1-19.3-0.3-28.9-0.6c-23-0.7-44.6-2.2-57.6-4.7c-3.9-0.8-7.1-1.7-9.5-2.7
		c-5.6-2.4-10.8-5.7-15.5-9.9c-3-2.6-5.8-5.4-8.4-8.4c-9.1-10.4-21.2-17.6-34.4-20.6c-4.6-1.2-10.8-1.8-15.6-1.8h-5.9
		c-0.2,0-15.7-0.5-15.8-1.4c-5.4-1.4-9.9-26.9-11.2-61.3c-0.3-7.2-0.4-14.7-0.4-22.4c0.1-12.6,0.6-24.3,1.4-34.8
		c-2.1,0-4.2-0.1-6.3-0.3c0-0.1-3.6-0.3-3.5-0.4h-3.9c-0.2,0-10.4,0.3-10.6,0.8c-2.8,15-4.6,38-4.6,63.8c0,1.9,0,3.8,0,5.7
		C87.6,288,93,322.4,99.5,322.4z"/>
	<path class="st16" d="M97.7,324.2h22.6c19.1,0,37,8.6,49.3,23.2c6.7,7.9,14.8,14.3,24,17.9c12.1,4.8,48,6.7,83,7.4
		c3.5,0.1,6.9,0.1,10.3,0.2c22.9,0.3,44.1,0.1,55.1-0.1c10.1-0.1,16.8-0.7,17.7-1.5c2.9-0.4,5.6-1.4,8.2-2.7c0.3-2.3-0.5-4.9-1-8
		c-0.3-1.7-0.6-6.6-1.6-13.4c-12.8,0.2-31.5,0.3-51.4,0c-9.6-0.1-19.4-0.3-29.1-0.6c-23.4-0.8-45.3-2.2-57.9-4.9
		c-3.8-0.8-7-1.8-9.4-2.9c-5.6-2.5-10.8-6-15.5-10.2c-2.9-2.7-5.8-5.5-8.5-8.5c-9.4-10.2-21.6-17.3-35-20c-4.1-1-11.4-1.6-15.7-1.6
		h-6c-0.5,0-14.6-1-15-2.8c-5.2-2.7-9.5-28.2-10.6-61.9c-0.2-7.3-0.3-14.9-0.3-22.6c0.1-12.8,0.7-24.6,1.6-35
		c-1.8-0.3-3.7-0.7-5.6-1.1c0.1-0.3-3.2-0.5-3.1-0.8h-3.9c-0.4,0-9.8,0.6-10.1,1.7c-2.9,14.8-4.7,38-4.8,64.1c0,1.9,0,3.8,0,5.7
		C85.8,289.5,91.2,324.2,97.7,324.2z"/>
	<path class="st17" d="M96,325.9h22.6c19.1,0,37,8.6,49.3,23.2c6.7,7.9,14.8,14.3,24,17.9c12.2,4.9,48.7,6.8,83.9,7.4
		c3.5,0.1,7,0.1,10.4,0.2c24,0.3,45.9,0,55.7-0.1c9.7-0.1,16.4-1,17.8-2.1c2.8-0.6,5.5-1.8,8-3.2c-0.2-1.7-1-3.9-2.5-6.6
		c0-1.6-1.3-5.8-3.4-11.9c-12.8,0.2-31.7,0.3-51.7,0c-9.7-0.1-19.6-0.3-29.2-0.6c-23.8-0.8-45.9-2.3-58.2-5.1
		c-3.7-0.9-6.9-1.9-9.4-3.1c-5.6-2.6-10.7-6.2-15.4-10.5c-2.9-2.7-5.8-5.6-8.6-8.5c-9.6-10.1-22-16.9-35.5-19.3
		c-3.6-0.9-11.9-1.4-15.8-1.4h-6c-0.7,0-13.5-1.6-14.1-4.2c-5-4.1-9-29.5-10-62.5c-0.2-7.4-0.3-15.1-0.2-22.7
		c0.2-12.9,0.8-24.8,1.8-35.2c-1.6-0.6-3.2-1.2-4.8-1.9c0.1-0.4-2.7-0.8-2.6-1.1h-3.9c-0.6,0-9.1,0.9-9.6,2.5c-3,14.6-4.9,38-5,64.5
		c0,1.9,0,3.8,0,5.8C84,291,89.4,325.9,96,325.9z"/>
	<path class="st18" d="M94.2,327.7h22.6c19.1,0,37,8.6,49.3,23.2c6.7,7.9,14.8,14.3,24,17.9c12.3,4.9,49.3,6.8,84.9,7.4
		c3.5,0.1,7.1,0.1,10.5,0.2c25.1,0.3,47.7,0,56.3-0.1c9.3-0.1,16-1.2,17.8-2.8c2.8-0.8,5.4-2.1,7.8-3.8c-0.8-1.2-2.1-2.8-4.1-5.2
		c0-1.4-2-5.1-5.1-10.4c-12.9,0.2-31.9,0.3-52,0c-9.7-0.1-19.7-0.3-29.4-0.7c-24.2-0.8-46.5-2.4-58.5-5.3c-3.7-0.9-6.8-2-9.4-3.3
		c-5.5-2.7-10.7-6.4-15.3-10.9c-2.9-2.8-5.8-5.7-8.7-8.6c-9.8-10-22.4-16.6-36.1-18.7c-3.2-0.8-12.5-1.2-15.9-1.2h-6
		c-1,0-12.5-2.1-13.2-5.6c-4.7-5.5-8.5-30.8-9.4-63.1c-0.2-7.5-0.2-15.2-0.1-22.9c0.2-13.1,1-25.1,2-35.4c-1.3-0.9-2.7-1.8-4-2.6
		c0.1-0.5-2.3-1-2.2-1.5h-3.9c-0.7,0-8.5,1.2-9.1,3.4c-3,14.4-5.1,38-5.2,64.9c0,1.9,0,3.9,0,5.8C82.2,292.5,87.6,327.7,94.2,327.7z
		"/>
	<path class="st19" d="M92.4,329.5h22.6c19.1,0,37,8.6,49.3,23.2c6.7,7.9,14.8,14.3,24,17.9c12.5,5,50,6.8,85.8,7.5
		c3.6,0.1,7.1,0.1,10.7,0.1c26.2,0.3,49.5-0.1,56.8-0.2c9-0.1,15.5-1.4,17.9-3.4c2.8-1,5.3-2.5,7.6-4.3c-1.3-0.6-3.2-1.7-5.6-3.7
		c0-1.2-2.6-4.3-6.9-8.8c-13,0.2-32.1,0.3-52.3,0c-9.8-0.1-19.9-0.3-29.6-0.7c-24.5-0.8-47.2-2.5-58.7-5.5c-3.6-1-6.7-2.2-9.4-3.5
		c-5.5-2.9-10.7-6.7-15.2-11.2c-2.9-2.9-5.8-5.8-8.7-8.6c-10-9.8-22.9-16.3-36.7-18.1c-2.7-0.7-13.1-1.1-16-1.1h-6
		c-1.2,0-11.4-2.6-12.4-7c-4.5-6.8-8.1-32-8.8-63.8c-0.2-7.7-0.2-15.4,0-23.1c0.3-13.3,1.1-25.4,2.2-35.6c-1.1-1.2-2.1-2.3-3.2-3.4
		c0.1-0.7-1.9-1.3-1.7-1.9h-3.9c-0.9,0-7.8,1.5-8.6,4.2c-3.1,14.2-5.2,38-5.4,65.3c0,1.9,0,3.9,0,5.8
		C80.4,294,85.8,329.5,92.4,329.5z"/>
	<path class="st20" d="M90.7,331.3h22.6c19.1,0,37,8.6,49.3,23.2c6.7,7.9,14.8,14.3,24,17.9c12.6,5,50.6,6.9,86.7,7.5
		c3.6,0.1,7.2,0.1,10.8,0.1c27.3,0.3,51.3-0.1,57.4-0.2c8.6-0.1,14.8-2.1,17.9-4c2.5-1.6,5.2-2.9,7.5-4.8c-1.8,0-4.2-0.6-7.2-2.3
		c0-1-3.3-3.6-8.6-7.3c-13.1,0.2-32.3,0.3-52.7,0c-9.9-0.1-20-0.3-29.8-0.7c-24.9-0.9-47.8-2.5-59-5.8c-3.5-1-6.7-2.3-9.3-3.7
		c-5.5-3-10.6-6.9-15.2-11.5c-2.9-2.9-5.8-5.8-8.8-8.7c-10.2-9.7-23.3-15.9-37.3-17.4c-2.3-0.6-13.7-0.9-16.1-0.9h-6
		c-1.5,0-10.4-3.1-11.5-8.4c-4.3-8.2-7.6-33.3-8.2-64.4c-0.1-7.8-0.1-15.6,0.1-23.2c0.4-13.5,1.2-25.7,2.4-35.9
		c-0.8-1.5-1.6-2.8-2.4-4.2c0.2-0.8-1.5-1.6-1.3-2.3h-3.9c-1.1,0-7.2,1.8-8.1,5.1c-3.2,14-5.4,38-5.6,65.7c0,2,0,3.9,0,5.9
		C78.6,295.5,84,331.3,90.7,331.3z"/>
	<path class="st21" d="M88.9,333h22.6c19.1,0,37,8.6,49.3,23.2c6.7,7.9,14.8,14.3,24,17.9c12.7,5,51.2,6.9,87.6,7.5
		c3.7,0.1,7.3,0.1,10.9,0.1c28.4,0.3,53.1-0.2,58-0.2c8.2-0.1,14.4-2.2,18-4.6c2.5-1.7,5.1-3.2,7.3-5.4c-2.4,0.6-5.3,0.5-8.7-0.9
		c0-0.8-4-2.8-10.4-5.8c-13.2,0.2-32.5,0.3-53,0c-9.9-0.1-20.1-0.4-30-0.7c-25.3-0.9-48.4-2.6-59.3-6c-3.5-1.1-6.6-2.4-9.3-3.9
		c-5.5-3.1-10.6-7.1-15.1-11.8c-2.9-3-5.8-5.9-8.9-8.7c-10.5-9.6-23.7-15.6-37.8-16.8c-1.8-0.5-14.2-0.7-16.2-0.7h-6
		c-1.7,0-9.3-3.6-10.6-9.8c-4-9.6-7.1-34.6-7.6-65c-0.1-7.9,0-15.8,0.2-23.4c0.4-13.6,1.3-25.9,2.6-36.1c-0.6-1.8-1.1-3.4-1.6-4.9
		c0.2-0.9-1-1.8-0.8-2.6H90c-1.3,0-6.5,2.1-7.6,5.9c-3.3,13.8-5.6,38.1-5.8,66.1c0,2,0,3.9,0,5.9C76.7,297,82.2,333,88.9,333z"/>
	<path class="st22" d="M87.1,334.8h22.6c19.1,0,37,8.6,49.3,23.2c6.7,7.9,14.8,14.3,24,17.9c12.8,5.1,51.9,6.9,88.5,7.5
		c3.7,0.1,7.4,0.1,11,0.1c29.5,0.3,54.9-0.2,58.6-0.3c7.8-0.1,14-2.4,18-5.2c2.5-1.8,5-3.6,7.1-5.9c-2.9,1.2-6.4,1.6-10.3,0.6
		c0-0.6-4.7-2.1-12.1-4.3c-13.3,0.2-32.7,0.3-53.3,0c-10-0.1-20.3-0.4-30.2-0.7c-25.7-0.9-49.1-2.7-59.6-6.2
		c-3.4-1.1-6.5-2.5-9.3-4.1c-5.5-3.2-10.5-7.3-15-12.2c-2.8-3.1-5.8-6-8.9-8.8c-10.7-9.5-24.1-15.3-38.4-16.2
		c-1.4-0.4-14.8-0.5-16.2-0.5h-6c-1.9,0-8.3-4.2-9.8-11.2c-3.8-10.9-6.6-35.8-7-65.6c-0.1-8,0-15.9,0.3-23.6
		c0.5-13.8,1.5-26.2,2.8-36.3c-0.3-2-0.6-3.9-0.8-5.7c0.2-1.1-0.6-2.1-0.4-3H88c-1.5,0-5.9,2.4-7.1,6.8c-3.4,13.6-5.8,38.1-6,66.4
		c0,2,0,3.9,0,5.9C74.9,298.5,80.4,334.8,87.1,334.8z"/>
	<path class="st23" d="M85.3,336.6H108c19.1,0,37,8.6,49.3,23.2c6.7,7.9,14.8,14.3,24,17.9c12.9,5.1,52.5,7,89.4,7.5
		c3.8,0.1,7.5,0.1,11.2,0.1c30.5,0.3,56.7-0.3,59.1-0.3c7.5-0.1,13.7-2.5,18.1-5.9c2.5-1.9,4.9-4,6.9-6.4c-3.4,1.8-7.4,2.7-11.9,2
		c0-0.4-5.3-1.3-13.9-2.8c-13.3,0.2-33,0.3-53.6,0c-10.1-0.1-20.4-0.4-30.4-0.7c-26.1-1-49.7-2.8-59.9-6.4c-3.3-1.2-6.4-2.6-9.2-4.3
		c-5.5-3.3-10.5-7.6-14.9-12.5c-2.8-3.1-5.8-6.1-9-8.8c-10.9-9.3-24.5-14.9-39-15.5c-0.9-0.2-15.4-0.4-16.3-0.4h-6.1
		c-2.2,0-7.2-4.7-8.9-12.6c-3.6-12.3-6.1-37.1-6.4-66.2c0-8.1,0.1-16.1,0.4-23.8c0.5-14,1.6-26.5,3-36.5c0-2.3-0.1-4.5-0.1-6.4
		c0.3-1.2-0.2-2.3,0.1-3.4h-3.9c-1.7,0-5.3,2.7-6.6,7.6c-3.5,13.4-5.9,38.1-6.2,66.8c0,2,0,4,0,6C73.1,300,78.6,336.6,85.3,336.6z"
		/>
	<path class="st24" d="M83.6,338.4h22.6c19.1,0,37,8.6,49.3,23.2c6.7,7.9,14.8,14.3,24,17.9c13,5.2,53.2,7,90.3,7.5
		c3.8,0.1,7.6,0.1,11.3,0.1c31.6,0.2,58.4-0.3,59.7-0.4c7.1,0,13.3-2.6,18.1-6.5c2.5-2,4.8-4.3,6.8-7c-3.9,2.4-8.5,3.8-13.4,3.4
		c0-0.2-6-0.6-15.6-1.2c-13.4,0.2-33.2,0.3-54,0c-10.2-0.1-20.6-0.4-30.6-0.7c-26.5-1-50.3-2.9-60.2-6.6c-3.3-1.2-6.3-2.8-9.2-4.6
		c-5.5-3.4-10.5-7.8-14.9-12.8c-2.8-3.2-5.9-6.2-9.1-8.9c-11.1-9.2-25-14.6-39.6-14.9c-0.5-0.1-15.9-0.2-16.4-0.2h-6.1
		c-2.4,0-6.2-5.2-8-14c-3.4-13.7-5.6-38.4-5.8-66.9c0-8.3,0.1-16.3,0.4-23.9c0.6-14.2,1.7-26.8,3.2-36.7c0.2-2.6,0.5-5,0.7-7.2
		c0.3-1.3,0.2-2.6,0.6-3.8h-3.9c-1.9,0-4.6,3.1-6.2,8.4c-3.6,13.1-6.1,38.1-6.4,67.2c0,2,0,4,0,6C71.3,301.5,76.8,338.4,83.6,338.4z
		"/>
	<path class="st25" d="M350.4,378.7c0,0-34.2,0.8-71.6,0.3c-37.4-0.5-78.2-2.3-91.3-7.5c-9.2-3.6-17.3-10-24-17.9
		c-12.4-14.5-30.3-23.2-49.3-23.2H91.5c-6.8,0-12.3-37.1-12.3-82.9c0-31.7,2.6-59.2,6.5-73.1h-4c-6.8,0-12.3,37.1-12.3,82.9
		s5.5,82.9,12.3,82.9h22.6c19.1,0,37,8.6,49.3,23.2c6.7,7.9,14.8,14.3,24,17.9c13.1,5.2,53.8,7,91.3,7.5s71.6-0.3,71.6-0.3
		c10,0,19.2-6.1,24.7-14.6C360.9,376.8,355.8,378.7,350.4,378.7z"/>
</g>
<radialGradient id="SVGID_2_" cx="339.9989" cy="-343.8113" r="64.5181" gradientTransform="matrix(1 0 0 -0.5087 0 199.6868)" gradientUnits="userSpaceOnUse">
	<stop  offset="0" style="stop-color:#CD9C71"/>
	<stop  offset="0.629" style="stop-color:#B68161"/>
	<stop  offset="0.712" style="stop-color:#B17C5D"/>
	<stop  offset="0.816" style="stop-color:#A16F53"/>
	<stop  offset="0.93" style="stop-color:#885941"/>
	<stop  offset="0.999" style="stop-color:#754934"/>
</radialGradient>
<path class="st26" d="M401.8,353.5c-2.6-18.8-19.9-32-38.8-29.5c-7.4,1-13.9,4.4-18.9,9.1l-28.9,13c-1.2-0.1-2.4-0.1-3.5,0.1
	c-11,1.6-18.5,13.2-16.9,26c1.5,11.8,10.4,20.4,20.5,20.2l54.6-0.1c0.8,0,1.7,0,2.5-0.1C391.2,389.7,404.4,372.3,401.8,353.5z"/>
<radialGradient id="SVGID_3_" cx="355.6409" cy="-219.3214" r="74.5528" gradientTransform="matrix(1 0 0 -0.5286 0 209.9799)" gradientUnits="userSpaceOnUse">
	<stop  offset="0" style="stop-color:#CD9C71"/>
	<stop  offset="0.629" style="stop-color:#B68161"/>
	<stop  offset="0.712" style="stop-color:#B17C5D"/>
	<stop  offset="0.816" style="stop-color:#A16F53"/>
	<stop  offset="0.93" style="stop-color:#885941"/>
	<stop  offset="0.999" style="stop-color:#754934"/>
</radialGradient>
<path class="st27" d="M426.4,303.4c-2.7-22-22.7-37.7-44.7-35c-8.9,1.1-16.7,5.1-22.8,10.9L314.4,291c-12.8,2.7-21.7,16.3-20,31.4
	c1.6,14.7,12.8,25.4,25.4,25.2l68,0.6c1.2,0,2.4,0.1,3.5-0.1C413.4,345.5,429.1,325.5,426.4,303.4z"/>
<radialGradient id="SVGID_4_" cx="364.9441" cy="-76.3788" r="80.7549" gradientTransform="matrix(1 0 0 -0.5643 0 230.5069)" gradientUnits="userSpaceOnUse">
	<stop  offset="0" style="stop-color:#CD9C71"/>
	<stop  offset="0.629" style="stop-color:#B68161"/>
	<stop  offset="0.712" style="stop-color:#B17C5D"/>
	<stop  offset="0.816" style="stop-color:#A16F53"/>
	<stop  offset="0.93" style="stop-color:#885941"/>
	<stop  offset="0.999" style="stop-color:#754934"/>
</radialGradient>
<path class="st28" d="M437.8,245.4c-2.9-22-23.1-37.5-45.1-34.6c-1.2,0.2-68,23-68,23c-13.1,2.5-22.1,16.4-20.2,31.7
	c1.7,14,12,24.3,23.9,25.1c0,0,73.2,0.1,74.9-0.1C425.2,287.6,440.7,267.4,437.8,245.4z"/>
<radialGradient id="SVGID_5_" cx="344.1653" cy="87.3963" r="71.2176" gradientTransform="matrix(0.9966 -8.210000e-02 -5.360000e-02 -0.6507 35.0129 283.203)" gradientUnits="userSpaceOnUse">
	<stop  offset="0" style="stop-color:#CD9C71"/>
	<stop  offset="0.629" style="stop-color:#B68161"/>
	<stop  offset="0.712" style="stop-color:#B17C5D"/>
	<stop  offset="0.816" style="stop-color:#A16F53"/>
	<stop  offset="0.93" style="stop-color:#885941"/>
	<stop  offset="0.999" style="stop-color:#754934"/>
</radialGradient>
<path class="st29" d="M439.7,192.1c-2.3-19.3-19.5-33.1-38.7-31.6c0,0-2.6,0.3-3.1,0.4l-66,10.9c-12.7,2.9-21.4,17.1-19.6,32.9
	c1.7,15.4,12.6,26.7,25.1,26.8l66.8,1c1.3,0,2.6,0.1,3.9-0.1C428,230,442.1,211.9,439.7,192.1z"/>
<radialGradient id="SVGID_6_" cx="-415.4201" cy="504.9738" r="32.6942" gradientTransform="matrix(0.2512 -1.2422 1.8822 0.3806 -645.6727 -394.1655)" gradientUnits="userSpaceOnUse">
	<stop  offset="0.425" style="stop-color:#FFFFFF"/>
	<stop  offset="1" style="stop-color:#FFFFFF;stop-opacity:0"/>
</radialGradient>
<path class="st30" d="M209.6,268.9c-38.7-7.8-74.1,6.1-79.2,31.1c-5.1,25,22.2,51.6,60.9,59.4c38.7,7.8,74.1-6.1,79.2-31.1
	C275.5,303.4,248.2,276.8,209.6,268.9z"/>
<linearGradient id="SVGID_7_" gradientUnits="userSpaceOnUse" x1="190.4835" y1="448.3944" x2="102.4831" y2="333.8202" gradientTransform="matrix(-0.1708 -0.9853 0.9853 -0.1708 -112.7735 416.993)">
	<stop  offset="0" style="stop-color:#CD9C71;stop-opacity:0"/>
	<stop  offset="0.605" style="stop-color:#B68161"/>
	<stop  offset="0.999" style="stop-color:#754934;stop-opacity:0.64"/>
</linearGradient>
<path class="st31" d="M287.7,149c-2.3,18-8,36.3-16.8,53.4c-5.4,10.5-12,20.7-19.5,29.9c-12.6,15.4-28.5,28.9-46.6,37.8
	c-6.1,3-12.5,5.3-19,7.1c-6,1.6-13.7,4.2-19.9,3.3c-1.8,0-3.5-0.4-5-1.4c-1.3-0.9-2.2-2.2-2.4-3.8c0-0.1,0-0.3,0-0.4
	c-0.2-3.3,3-6.2,7.4-6.4c36.1-1.9,73.1-29.9,94.4-71.5c8.7-17,14.1-35.3,15.9-53.1L287.7,149z"/>
<radialGradient id="SVGID_8_" cx="-283.4695" cy="527.2694" r="32.7202" gradientTransform="matrix(0.7379 0.8683 1.4406 -1.2243 -357.9535 1097.4774)" gradientUnits="userSpaceOnUse">
	<stop  offset="0.425" style="stop-color:#FFFFFF"/>
	<stop  offset="1" style="stop-color:#FFFFFF;stop-opacity:0"/>
</radialGradient>
<path class="st32" d="M219.3,237.4c-29.6,25.1-65.6,31.4-80.5,13.9c-14.8-17.5-2.9-52,26.7-77.2s65.6-31.4,80.5-13.9
	S248.9,212.3,219.3,237.4z"/>
<radialGradient id="SVGID_9_" cx="-350.2371" cy="606.6097" r="32.692" gradientTransform="matrix(0 -0.6907 1.5532 0 -565.3352 -44.5587)" gradientUnits="userSpaceOnUse">
	<stop  offset="0.425" style="stop-color:#FFFFFF"/>
	<stop  offset="1" style="stop-color:#FFFFFF;stop-opacity:0"/>
</radialGradient>
<ellipse class="st33" cx="376.9" cy="197.4" rx="57.8" ry="25.2"/>
<radialGradient id="SVGID_10_" cx="-466.354" cy="600.4291" r="32.6945" gradientTransform="matrix(0 -0.6053 1.5532 0 -565.0582 -17.6203)" gradientUnits="userSpaceOnUse">
	<stop  offset="0.425" style="stop-color:#FFFFFF"/>
	<stop  offset="1" style="stop-color:#FFFFFF;stop-opacity:0"/>
</radialGradient>
<ellipse class="st34" cx="367.5" cy="264.6" rx="57.8" ry="22"/>
<radialGradient id="SVGID_11_" cx="-560.4396" cy="593.6215" r="32.6959" gradientTransform="matrix(0 -0.6053 1.5532 0 -564.7532 -17.6203)" gradientUnits="userSpaceOnUse">
	<stop  offset="0.425" style="stop-color:#FFFFFF"/>
	<stop  offset="1" style="stop-color:#FFFFFF;stop-opacity:0"/>
</radialGradient>
<ellipse class="st35" cx="357.3" cy="321.5" rx="57.8" ry="22"/>
<radialGradient id="SVGID_12_" cx="-639.5758" cy="585.03" r="23.4216" gradientTransform="matrix(0 -0.6053 1.5532 0 -564.3692 -17.6203)" gradientUnits="userSpaceOnUse">
	<stop  offset="0.425" style="stop-color:#FFFFFF"/>
	<stop  offset="1" style="stop-color:#FFFFFF;stop-opacity:0"/>
</radialGradient>
<ellipse class="st36" cx="344.3" cy="369.4" rx="41.4" ry="15.8"/>
</svg>
