<svg xmlns="http://www.w3.org/2000/svg" xmlns:xlink="http://www.w3.org/1999/xlink" width="48" height="48" data-name="Слой 1" viewBox="0 0 48 48"><defs><radialGradient id="CoCemx~GKFodKKz4WU4JWa" cx="14.051" cy="13.908" r="3.907" data-name="Безымянный градиент 99" gradientUnits="userSpaceOnUse"><stop offset="0" stop-color="#2a2a2a"/><stop offset=".248" stop-color="#2f2f2f"/><stop offset=".545" stop-color="#3e3e3e"/><stop offset=".866" stop-color="#565656"/><stop offset="1" stop-color="#626262"/></radialGradient><radialGradient id="CoCemx~GKFodKKz4WU4JWc" cx="33.577" cy="12.538" r="2.928" xlink:href="#CoCemx~GKFodKKz4WU4JWa"/><radialGradient id="CoCemx~GKFodKKz4WU4JWb" cx="13.128" cy="19.075" r="8.399" data-name="Безымянный градиент 96" gradientUnits="userSpaceOnUse"><stop offset="0" stop-color="#626262"/><stop offset="1" stop-color="#2a2a2a"/></radialGradient><radialGradient id="CoCemx~GKFodKKz4WU4JWd" cx="32.443" cy="19.516" r="8.384" xlink:href="#CoCemx~GKFodKKz4WU4JWb"/><radialGradient id="CoCemx~GKFodKKz4WU4JWe" cx="33.044" cy="17.113" r="3.742" data-name="Безымянный градиент 109" gradientUnits="userSpaceOnUse"><stop offset="0" stop-color="#ffe987"/><stop offset=".633" stop-color="#ffcf00"/></radialGradient><radialGradient id="CoCemx~GKFodKKz4WU4JWf" cx="33.137" cy="24.261" r="2.157" data-name="Безымянный градиент 147" gradientUnits="userSpaceOnUse"><stop offset="0" stop-color="#85ba6c"/><stop offset="1" stop-color="#3d9215"/></radialGradient><radialGradient id="CoCemx~GKFodKKz4WU4JWg" cx="36.478" cy="20.687" r="3.798" data-name="Безымянный градиент 134" gradientUnits="userSpaceOnUse"><stop offset="0" stop-color="#de6755"/><stop offset=".253" stop-color="#d93f22"/><stop offset=".656" stop-color="#ce1b00"/></radialGradient><radialGradient id="CoCemx~GKFodKKz4WU4JWh" cx="29.782" cy="21.015" r="2.012" data-name="Безымянный градиент 153" gradientUnits="userSpaceOnUse"><stop offset="0" stop-color="#66baf0"/><stop offset="1" stop-color="#008ce5"/></radialGradient></defs><path fill="url(#CoCemx~GKFodKKz4WU4JWa)" d="M13.147,10.331h2.176a1.253,1.253,0,0,1,1.253,1.253v.923a0,0,0,0,1,0,0H11.895a0,0,0,0,1,0,0v-.923A1.253,1.253,0,0,1,13.147,10.331Z"/><path fill="url(#CoCemx~GKFodKKz4WU4JWc)" d="M32.641,10.3h2.176a1.253,1.253,0,0,1,1.253,1.253v.923a0,0,0,0,1,0,0H31.388a0,0,0,0,1,0,0v-.923A1.253,1.253,0,0,1,32.641,10.3Z"/><path fill="#626262" d="M46.908,33.372c0,3.816-1.908,6.679-4.781,6.679-8.586,0-12.4-8.587-18.127-8.587s-9.541,8.587-18.127,8.587c-2.873,0-4.781-2.863-4.781-6.679,0-6.912,3.928-15.326,7.968-19.436,1.543-1.573,3.085-2.517,4.445-2.517,4.923,0,5.572,2.872,10.5,2.872s5.572-2.872,10.495-2.872c1.36,0,2.9.944,4.445,2.517C42.98,18.046,46.908,26.46,46.908,33.372Z"/><path fill="#6c6c6c" d="M46.653,32.95c0,3.774-1.887,6.6-4.726,6.6-8.492,0-12.266-8.491-17.927-8.491s-9.435,8.491-17.927,8.491c-2.839,0-4.726-2.83-4.726-6.6,0-6.739,3.786-14.926,7.713-19.014,1.543-1.573,3.085-2.517,4.445-2.517,4.923,0,5.572,2.872,10.5,2.872s5.572-2.872,10.495-2.872c1.36,0,2.9.944,4.445,2.517C42.867,18.024,46.653,26.211,46.653,32.95Z"/><path fill="#757575" d="M46.4,32.527c0,3.732-1.866,6.53-4.673,6.53-8.4,0-12.128-8.4-17.726-8.4s-9.33,8.4-17.726,8.4c-2.807,0-4.673-2.8-4.673-6.53C1.6,25.962,5.247,18,9.06,13.936c1.543-1.573,3.085-2.517,4.445-2.517,4.923,0,5.572,2.872,10.5,2.872s5.572-2.872,10.495-2.872c1.36,0,2.9.944,4.445,2.517C42.753,18,46.4,25.962,46.4,32.527Z"/><path fill="#7e7e7e" d="M46.144,32.1c0,3.69-1.845,6.456-4.619,6.456-8.3,0-11.99-8.3-17.525-8.3s-9.224,8.3-17.525,8.3C3.7,38.561,1.856,35.8,1.856,32.1c0-6.392,3.5-14.124,7.2-18.169,1.543-1.573,3.085-2.517,4.445-2.517,4.923,0,5.572,2.872,10.5,2.872s5.572-2.872,10.495-2.872c1.36,0,2.9.944,4.445,2.517C42.64,17.981,46.144,25.713,46.144,32.1Z"/><path fill="#878787" d="M45.89,31.683c0,3.647-1.824,6.381-4.565,6.381-8.206,0-11.854-8.2-17.325-8.2s-9.119,8.2-17.325,8.2c-2.741,0-4.565-2.734-4.565-6.381,0-6.219,3.363-13.724,6.95-17.747,1.543-1.573,3.085-2.517,4.445-2.517,4.923,0,5.572,2.872,10.5,2.872s5.572-2.872,10.495-2.872c1.36,0,2.9.944,4.445,2.517C42.527,17.959,45.89,25.464,45.89,31.683Z"/><path fill="#909090" d="M45.635,31.26c0,3.606-1.8,6.308-4.511,6.308-8.11,0-11.716-8.11-17.124-8.11s-9.014,8.11-17.124,8.11c-2.708,0-4.511-2.7-4.511-6.308,0-6.045,3.221-13.323,6.7-17.324,1.543-1.573,3.085-2.517,4.445-2.517,4.923,0,5.572,2.872,10.5,2.872s5.572-2.872,10.495-2.872c1.36,0,2.9.944,4.445,2.517C42.414,17.937,45.635,25.215,45.635,31.26Z"/><path fill="#999" d="M45.381,30.838c0,3.563-1.782,6.233-4.458,6.233-8.015,0-11.578-8.015-16.923-8.015s-8.908,8.015-16.923,8.015c-2.676,0-4.458-2.67-4.458-6.233,0-5.872,3.08-12.923,6.441-16.9,1.543-1.573,3.085-2.517,4.445-2.517,4.923,0,5.572,2.872,10.5,2.872s5.572-2.872,10.495-2.872c1.36,0,2.9.944,4.445,2.517C42.3,17.915,45.381,24.966,45.381,30.838Z"/><path fill="#a3a3a3" d="M45.126,30.416c0,3.521-1.761,6.159-4.4,6.159-7.92,0-11.441-7.92-16.723-7.92s-8.8,7.92-16.723,7.92c-2.642,0-4.4-2.638-4.4-6.159,0-5.7,2.939-12.523,6.186-16.48,1.543-1.573,3.085-2.517,4.445-2.517,4.923,0,5.572,2.872,10.5,2.872s5.572-2.872,10.495-2.872c1.36,0,2.9.944,4.445,2.517C42.187,17.893,45.126,24.717,45.126,30.416Z"/><path fill="#acacac" d="M44.871,29.993c0,3.479-1.739,6.085-4.349,6.085-7.825,0-11.3-7.824-16.522-7.824s-8.7,7.824-16.522,7.824c-2.61,0-4.349-2.606-4.349-6.085,0-5.525,2.8-12.122,5.931-16.057,1.543-1.573,3.085-2.517,4.445-2.517,4.923,0,5.572,2.872,10.5,2.872s5.572-2.872,10.495-2.872c1.36,0,2.9.944,4.445,2.517C42.074,17.871,44.871,24.468,44.871,29.993Z"/><path fill="#b5b5b5" d="M44.617,29.571c0,3.437-1.718,6.011-4.3,6.011-7.729,0-11.166-7.73-16.321-7.73s-8.592,7.73-16.321,7.73c-2.578,0-4.3-2.574-4.3-6.011,0-5.352,2.656-11.721,5.677-15.635,1.543-1.573,3.085-2.517,4.445-2.517,4.923,0,5.572,2.872,10.5,2.872s5.572-2.872,10.495-2.872c1.36,0,2.9.944,4.445,2.517C41.961,17.85,44.617,24.219,44.617,29.571Z"/><path fill="#bebebe" d="M44.362,29.148c0,3.395-1.7,5.937-4.241,5.937-7.634,0-11.029-7.634-16.121-7.634s-8.487,7.634-16.121,7.634c-2.544,0-4.241-2.542-4.241-5.937,0-5.178,2.514-11.32,5.422-15.212,1.543-1.573,3.085-2.517,4.445-2.517,4.923,0,5.572,2.872,10.5,2.872s5.572-2.872,10.495-2.872c1.36,0,2.9.944,4.445,2.517C41.848,17.828,44.362,23.97,44.362,29.148Z"/><path fill="#c7c7c7" d="M44.108,28.726c0,3.352-1.676,5.863-4.188,5.863-7.539,0-10.891-7.539-15.92-7.539s-8.381,7.539-15.92,7.539c-2.512,0-4.188-2.511-4.188-5.863,0-5,2.374-10.92,5.168-14.79,1.543-1.573,3.085-2.517,4.445-2.517,4.923,0,5.572,2.872,10.5,2.872s5.572-2.872,10.495-2.872c1.36,0,2.9.944,4.445,2.517C41.734,17.806,44.108,23.721,44.108,28.726Z"/><path fill="#d0d0d0" d="M43.853,28.3c0,3.31-1.655,5.788-4.134,5.788-7.443,0-10.753-7.444-15.719-7.444s-8.276,7.444-15.719,7.444c-2.479,0-4.134-2.478-4.134-5.788,0-4.832,2.232-10.52,4.913-14.368,1.543-1.573,3.085-2.517,4.445-2.517,4.923,0,5.572,2.872,10.5,2.872s5.572-2.872,10.495-2.872c1.36,0,2.9.944,4.445,2.517C41.621,17.784,43.853,23.472,43.853,28.3Z"/><path fill="#dadada" d="M43.6,27.881c0,3.268-1.634,5.714-4.08,5.714C32.17,33.6,28.9,26.247,24,26.247S15.83,33.6,8.481,33.6c-2.446,0-4.08-2.446-4.08-5.714,0-4.658,2.091-10.119,4.659-13.945,1.543-1.573,3.085-2.517,4.445-2.517,4.923,0,5.572,2.872,10.5,2.872s5.572-2.872,10.495-2.872c1.36,0,2.9.944,4.445,2.517C41.508,17.762,43.6,23.223,43.6,27.881Z"/><circle cx="14.447" cy="20.99" r="6.131" fill="url(#CoCemx~GKFodKKz4WU4JWb)"/><circle cx="33.759" cy="21.428" r="6.12" fill="url(#CoCemx~GKFodKKz4WU4JWd)"/><path fill="#313131" d="M18.543,22.512h-2.1a.471.471,0,0,0-.471.472v2.1a.472.472,0,0,1-.472.472H13.4a.471.471,0,0,1-.471-.472v-2.1a.472.472,0,0,0-.472-.472h-2.1a.472.472,0,0,1-.472-.472v-2.1a.472.472,0,0,1,.472-.472h2.1A.472.472,0,0,0,12.925,19v-2.1a.472.472,0,0,1,.471-.472h2.1a.473.473,0,0,1,.472.472V19a.471.471,0,0,0,.471.471h2.1a.472.472,0,0,1,.471.472v2.1A.471.471,0,0,1,18.543,22.512Z"/><path fill="#b1b1b1" d="M15.663,19.339l-1.348,1.414-1.507-1.509V16.852a.43.43,0,0,1,.429-.43h2a.431.431,0,0,1,.43.43Z"/><path fill="#b1b1b1" d="M15.663,22.641l-1.348-1.414-1.507,1.509v2.391a.429.429,0,0,0,.429.43h2a.43.43,0,0,0,.43-.43Z"/><path fill="#b1b1b1" d="M15.968,22.3l-1.414-1.348,1.509-1.507h2.392a.429.429,0,0,1,.429.43v2a.429.429,0,0,1-.429.43Z"/><path fill="#b1b1b1" d="M12.666,22.3l1.414-1.348-1.509-1.507H10.18a.429.429,0,0,0-.43.43v2a.429.429,0,0,0,.43.43Z"/><circle cx="33.948" cy="18.14" r="1.748" fill="#cda542"/><circle cx="33.948" cy="25.133" r="1.748" fill="#3a5a1e"/><circle cx="37.444" cy="21.637" r="1.748" fill="#990010"/><circle cx="30.451" cy="21.637" r="1.748" fill="#007ea3"/><circle cx="33.729" cy="17.932" r="1.748" fill="url(#CoCemx~GKFodKKz4WU4JWe)"/><circle cx="33.729" cy="24.924" r="1.748" fill="url(#CoCemx~GKFodKKz4WU4JWf)"/><circle cx="37.225" cy="21.428" r="1.748" fill="url(#CoCemx~GKFodKKz4WU4JWg)"/><circle cx="30.233" cy="21.428" r="1.748" fill="url(#CoCemx~GKFodKKz4WU4JWh)"/><path fill="none" stroke="#cda542" stroke-linecap="round" stroke-linejoin="round" stroke-width=".25" d="M33.753,16.539l-1.236,2.1H35Z"/><circle cx="37.225" cy="21.428" r="1.176" fill="none" stroke="#990010" stroke-width=".25"/><rect width="1.936" height="1.936" x="29.288" y="20.428" fill="none" stroke="#007ea3" stroke-linecap="round" stroke-linejoin="round" stroke-width=".25"/><path fill="none" stroke="#3a5a1e" stroke-linecap="round" stroke-linejoin="round" stroke-width=".25" d="M32.729,23.971l2,2"/><path fill="none" stroke="#3a5a1e" stroke-linecap="round" stroke-linejoin="round" stroke-width=".25" d="M34.729,23.971l-1.955,1.955"/></svg>