<svg xmlns="http://www.w3.org/2000/svg" viewBox="0 0 48 48"><path fill="#607d8b" d="M20 32H28V40H20z"/><path fill="#90a4ae" d="M4 9H44V36H4z"/><path fill="#bbdefb" d="M6 11H42V34H6z"/><path fill="#90a4ae" d="M15 39H33V41H15z"/><path fill="#64b5f6" d="M17,31h14v-0.013C31,27.681,28.319,25,25.013,25h-2.025C19.681,25,17,27.681,17,30.987V31z"/><path fill="#ff9800" d="M26.001 23h-4v3c0 0 .328 1 1.959 1 1.631 0 2.041-1 2.041-1V23zM27.5 19A1.5 1.5 0 1 0 27.5 22 1.5 1.5 0 1 0 27.5 19zM20.5 19A1.5 1.5 0 1 0 20.5 22 1.5 1.5 0 1 0 20.5 19z"/><path fill="#ffb74d" d="M28,17.216C28,15.01,26.206,15,24,15s-4,0.01-4,2.216c0,0.347,0,3.436,0,3.784c0,2.206,1.794,4,4,4s4-1.794,4-4C28,20.653,28,17.564,28,17.216z"/><path fill="#424242" d="M23.781,13C21.344,13.219,19,14.93,19,18.574V20l1,1v-3l6.31-2.201L28,18v3l1-1v-1.203c0-2.414-0.135-4.205-3-4.797l-0.485-1H23.781z"/><path fill="#3f51b5" d="M17 29H23V33H17zM25 29H31V33H25zM9 29H15V33H9zM33 29H39V33H33z"/></svg>