<?xml version="1.0" encoding="utf-8"?>
<!-- Generator: Adobe Illustrator 26.2.1, SVG Export Plug-In . SVG Version: 6.00 Build 0)  -->
<svg version="1.1" id="Layer_1" xmlns="http://www.w3.org/2000/svg" xmlns:xlink="http://www.w3.org/1999/xlink" x="0px" y="0px"
	 viewBox="0 0 80 80" style="enable-background:new 0 0 80 80;" xml:space="preserve">
<style type="text/css">
	.st0{fill:#65E5FE;}
	.st1{fill:#1B9DE2;}
	.st2{fill:#F2FAFF;}
	.st3{fill:#788B9C;}
	.st4{fill:#46C453;}
	.st5{fill:#FFFFFF;}
	.st6{fill:none;stroke:#54535F;stroke-miterlimit:10;}
	.st7{fill:none;stroke:#FFFFFF;stroke-miterlimit:10;}
</style>
<path class="st0" d="M59.5,20.8v33.1c0,2.4-2,4.4-4.4,4.4h-17c-2.4,0-4.4-2-4.4-4.4v-8.3l8.1-8.1l0.2-0.2l0.2-0.2l17.1-17.1
	C59.4,20.2,59.5,20.5,59.5,20.8z"/>
<polygon class="st1" points="57,22.3 57,52.9 36.2,52.9 36.2,43.1 41.8,37.5 42,37.3 42.3,37 "/>
<circle class="st1" cx="46.6" cy="55.5" r="2.1"/>
<path class="st2" d="M47,31.2L28.7,49.5c-2.7-0.1-5.4-0.8-7.8-2.1l-0.1,0l-9.2,2.4l2.5-9l0-0.1c-1.5-2.7-2.4-5.7-2.4-8.8
	c0-9.7,7.9-17.6,17.7-17.6c4.7,0,9.2,1.8,12.5,5.2C45,22.5,46.8,26.7,47,31.2z"/>
<path class="st3" d="M42,19.2c-3.4-3.4-7.9-5.2-12.7-5.2c-9.9,0-17.9,8-17.9,17.9c0,3.2,0.8,6.2,2.4,8.9L11.3,50l9.5-2.5
	c2.4,1.3,5,2,7.7,2.1l0.4-0.4c-2.8-0.1-5.5-0.8-7.9-2.1L20.8,47l-0.2,0l-8.7,2.3l2.3-8.5l0-0.2l-0.1-0.2c-1.5-2.6-2.3-5.7-2.3-8.7
	c0-9.6,7.8-17.4,17.4-17.4c4.7,0,9,1.8,12.3,5.1c3.2,3.2,5,7.4,5.1,11.9l0.5-0.5C47,26.5,45.1,22.4,42,19.2z"/>
<path class="st4" d="M43.4,31.9c0,1.1-0.1,2.2-0.4,3.2L32.4,45.7c-1,0.2-2.1,0.4-3.2,0.4c-2.4,0-4.7-0.6-6.8-1.7l-1.4-0.7L19.6,44
	l-3.1,0.8l0.8-2.9l0.4-1.6L16.9,39c-1.2-2.1-1.9-4.6-1.9-7.1c0-7.8,6.4-14.2,14.2-14.2c3.8,0,7.4,1.5,10,4.2
	C41.9,24.6,43.4,28.1,43.4,31.9z"/>
<path class="st5" d="M37.1,35.4c-0.4-0.2-2.5-1.2-2.9-1.4c-0.4-0.1-0.7-0.2-1,0.2c-0.3,0.4-1.1,1.4-1.3,1.7
	c-0.2,0.3-0.5,0.3-0.9,0.1c-0.4-0.2-1.8-0.7-3.4-2.1c-1.3-1.1-2.1-2.5-2.4-2.9c-0.2-0.4,0-0.7,0.2-0.9c0.2-0.2,0.4-0.5,0.6-0.7
	c0.2-0.2,0.3-0.4,0.4-0.7c0.1-0.3,0.1-0.5,0-0.7s-1-2.3-1.3-3.2c-0.3-0.8-0.7-0.7-1-0.7c-0.2,0-0.5,0-0.8,0c-0.3,0-0.7,0.1-1.1,0.5
	c-0.4,0.4-1.5,1.5-1.5,3.5s1.5,4.1,1.7,4.4c0.2,0.3,3,4.6,7.3,6.4c1,0.4,1.8,0.7,2.4,0.9c1,0.3,1.9,0.3,2.7,0.2c0.8-0.1,2.5-1,2.9-2
	c0.4-1,0.4-1.8,0.2-2C37.8,35.7,37.5,35.6,37.1,35.4z"/>
<polyline class="st6" points="20.6,57.4 22.9,55.1 23.1,54.9 23.4,54.7 26.9,51.1 37.5,40.5 41.2,36.8 41.4,36.6 41.6,36.4 59,19 
	"/>
<polyline class="st7" points="59.6,19.7 59.4,19.9 57,22.3 42.3,37 42,37.3 41.8,37.5 38.1,41.2 36.2,43.1 33.7,45.6 27.5,51.8 
	24,55.3 23.8,55.5 23.5,55.8 21.2,58 "/>
</svg>
